PathFileType	4	(X/Y/Z)	 s11c0202.trc
DataRate	CameraRate	NumFrames	NumMarkers	Units	OrigDataRate	OrigDataStartFrame	OrigNumFrames
200	200	5	48	mm	200	251	2000
Frame#	Time	racr			lacr			c7			jug			rlel			rdr			llel			ldr			s2			lic			ric			lasi			rasi			rpsi			lpsi			rgt			lgt			rth1			rth2			rth3			rth4			rlfc			rmfc			rsh1			rsh2			rsh3			rsh4			rlmal			rcal			rtoe			rmt5			lth1			lth2			lth4			lth3			llfc			lmfc			llmal			lcal			lmt5			lsh1			lsh2			lsh3			lsh4			ltoe			SBIKE			LBIKE			RBIKE			
		X1	Y1	Z1	X2	Y2	Z2	X3	Y3	Z3	X4	Y4	Z4	X5	Y5	Z5	X6	Y6	Z6	X7	Y7	Z7	X8	Y8	Z8	X9	Y9	Z9	X10	Y10	Z10	X11	Y11	Z11	X12	Y12	Z12	X13	Y13	Z13	X14	Y14	Z14	X15	Y15	Z15	X16	Y16	Z16	X17	Y17	Z17	X18	Y18	Z18	X19	Y19	Z19	X20	Y20	Z20	X21	Y21	Z21	X22	Y22	Z22	X23	Y23	Z23	X24	Y24	Z24	X25	Y25	Z25	X26	Y26	Z26	X27	Y27	Z27	X28	Y28	Z28	X29	Y29	Z29	X30	Y30	Z30	X31	Y31	Z31	X32	Y32	Z32	X33	Y33	Z33	X34	Y34	Z34	X35	Y35	Z35	X36	Y36	Z36	X37	Y37	Z37	X38	Y38	Z38	X39	Y39	Z39	X40	Y40	Z40	X41	Y41	Z41	X42	Y42	Z42	X43	Y43	Z43	X44	Y44	Z44	X45	Y45	Z45	X46	Y46	Z46	X47	Y47	Z47	X48	Y48	Z48	
251	1.2550	433.897371	1443.298345	-75.510989	435.249656	1465.349756	-401.736831	335.482229	1565.233888	-237.918434	389.551841	1399.211792	-245.547050	558.863275	1190.701589	-12.372752	774.101516	971.959206	-41.194842	542.775534	1177.119883	-470.368521	788.305845	964.417045	-443.824329	-131.455904	1180.541993	-258.943470	90.769875	1220.998070	-452.926677	79.360850	1213.271896	-54.589425	135.251641	1149.010128	-423.294327	114.134587	1151.022157	-92.186686	-100.734559	1254.973225	-204.161363	-97.757190	1244.890643	-298.880646	45.938483	1071.145218	-34.396932	21.401258	1071.660391	-466.292335	172.385815	998.353978	-32.225065	259.631003	980.219033	-40.806806	324.293679	922.144004	-52.196003	274.687879	1012.171380	-53.368419	418.045159	862.179529	-68.009274	428.194793	844.351749	-195.057447	384.783415	702.568281	-55.961276	388.176388	615.963397	-73.653817	348.681758	538.057057	-76.929988	414.174125	613.950466	-103.869204	308.010141	410.903116	-91.645590	245.516064	393.876177	-142.290383	528.671839	347.675710	-128.732331	455.518394	324.480483	-61.718471	135.375811	971.911909	-482.514796	211.564561	932.813212	-478.632147	236.799608	958.631039	-469.604592	259.654618	856.550696	-475.160434	343.049049	751.978718	-450.806066	355.156801	744.429874	-321.513851	22.346893	470.837386	-416.260232	-49.938924	454.989441	-378.832601	112.707570	326.116729	-446.226701	248.860041	671.543646	-465.828668	206.516879	598.678330	-449.245355	130.726040	553.675609	-441.317129	230.909882	579.709590	-425.760569	208.359519	306.789772	-377.451305	-205.299881	953.373644	-262.531790	1.478991	82.526745	-460.989228	-15.222225	81.072687	-62.376143	
252	1.2600	433.891132	1443.325039	-75.553059	435.312771	1465.417207	-401.769900	335.354669	1565.274693	-237.935270	389.549937	1399.263996	-245.582209	558.866020	1190.666739	-12.390809	774.120804	971.941421	-41.273541	542.788398	1177.127503	-470.345635	788.285455	964.374859	-443.751236	-131.513712	1180.512341	-258.938116	90.761441	1220.997158	-452.932425	79.347262	1213.302478	-54.619752	135.271487	1149.053442	-423.271520	114.117688	1151.077888	-92.219698	-100.425749	1254.778628	-204.271408	-97.791076	1244.880473	-298.896876	45.960705	1071.195831	-34.394690	21.367836	1071.641981	-466.275130	172.441198	998.481698	-32.252792	259.704577	980.362730	-40.926572	324.380582	922.334697	-52.269549	274.735425	1012.320797	-53.450591	418.133211	862.366704	-68.070191	428.267638	844.576161	-195.179228	384.856081	702.752689	-56.017331	388.229972	616.120028	-73.676956	348.733037	538.222595	-76.946485	414.230495	614.110382	-103.908174	308.036661	411.093436	-91.645501	245.599517	394.061147	-142.295979	528.673059	347.831304	-128.750278	455.534494	324.676334	-61.693010	135.312544	971.869565	-482.511355	211.498387	932.751325	-478.605580	236.711215	958.578684	-469.599544	259.580113	856.467406	-475.141639	342.949037	751.886214	-450.830608	355.014750	744.371077	-321.495400	22.309305	470.668773	-416.261013	-49.972024	454.814983	-378.817734	112.697036	325.981484	-446.206053	248.763618	671.449463	-465.838300	206.441273	598.568403	-449.239861	130.657464	553.543825	-441.307583	230.828720	579.534508	-425.756365	208.351969	306.658950	-377.449845	-205.302385	953.374936	-262.513209	1.484687	82.527254	-460.977255	-15.213297	81.094094	-62.391235	
253	1.2650	433.873103	1443.352248	-75.609635	435.319519	1465.536353	-401.820657	335.216952	1565.340922	-237.995094	389.529628	1399.334865	-245.604562	558.848290	1190.630626	-12.414393	774.102336	971.911777	-41.359453	542.769423	1177.091823	-470.349630	788.244902	964.331654	-443.649482	-131.597707	1180.473765	-258.919530	90.737884	1221.017488	-452.920818	79.318902	1213.351340	-54.643983	135.263728	1149.109956	-423.257630	114.106244	1151.122856	-92.227860	-100.769690	1254.840110	-204.164001	-97.845087	1244.871827	-298.905709	45.970637	1071.239618	-34.400634	21.337225	1071.617375	-466.265023	172.496107	998.608272	-32.298033	259.744037	980.483695	-41.005044	324.462729	922.501412	-52.333984	274.773148	1012.480304	-53.501911	418.218937	862.514028	-68.143233	428.342330	844.748329	-195.250799	384.945272	702.935452	-56.072674	388.274408	616.312692	-73.722783	348.787485	538.394044	-76.951159	414.286622	614.284772	-103.962689	308.065400	411.288812	-91.629947	245.653272	394.282552	-142.339052	528.702104	347.968733	-128.745026	455.540832	324.828860	-61.694898	135.252237	971.809912	-482.508433	211.416126	932.711391	-478.616090	236.622846	958.481833	-469.587063	259.470950	856.389485	-475.117859	342.818724	751.791517	-450.812051	354.988702	744.139252	-321.504169	22.264245	470.500848	-416.258524	-50.002503	454.636717	-378.843951	112.682333	325.818947	-446.206261	248.656643	671.345774	-465.843349	206.372148	598.474567	-449.282300	130.590493	553.435039	-441.313456	230.769876	579.508056	-425.830249	208.350876	306.535554	-377.449505	-205.293067	953.380467	-262.543016	1.485692	82.519814	-460.996557	-15.206342	81.082419	-62.392737	
254	1.2700	433.846159	1443.363163	-75.647654	435.329167	1465.598050	-401.874478	335.085528	1565.392907	-238.028971	389.499328	1399.383851	-245.662848	558.839231	1190.605677	-12.456529	774.090206	971.897735	-41.483823	542.732336	1177.071067	-470.401657	788.207845	964.294650	-443.530431	-131.409613	1180.215123	-258.961831	90.671208	1221.002341	-452.883428	79.276807	1213.413789	-54.680992	135.237782	1149.113608	-423.239263	114.083694	1151.152760	-92.245701	-100.826131	1254.843484	-204.164170	-97.903431	1244.862287	-298.918346	45.986554	1071.287281	-34.395296	21.265855	1071.586920	-466.283481	172.540662	998.726457	-32.351906	259.772154	980.612224	-41.052220	324.520491	922.694014	-52.382242	274.796801	1012.658613	-53.582204	418.317468	862.689548	-68.211874	428.407924	844.954767	-195.289472	385.031775	703.139549	-56.114510	388.335072	616.538785	-73.747785	348.838207	538.566526	-76.976723	414.339478	614.452970	-104.017247	308.083884	411.460001	-91.648490	245.243927	395.318142	-140.868148	528.718162	348.113431	-128.732042	455.568540	324.983222	-61.701195	135.171533	971.766608	-482.498068	211.327340	932.655533	-478.613333	236.543852	958.427151	-469.588522	259.370267	856.293793	-475.123148	342.702012	751.697385	-450.813324	354.897648	744.015515	-321.522752	22.207841	470.352946	-416.268019	-50.056995	454.459943	-378.849130	112.664091	325.670326	-446.225838	248.552259	671.230042	-465.836269	206.271099	598.349406	-449.289605	130.515018	553.316233	-441.308049	230.685896	579.423885	-425.828219	208.329504	306.382579	-377.456492	-205.298282	953.368645	-262.501021	1.478671	82.512630	-461.005234	-15.186274	81.095395	-62.473685	
255	1.2750	433.849073	1443.374395	-75.695957	435.330327	1465.663601	-401.876127	334.959239	1565.451532	-238.070190	389.482108	1399.416099	-245.682092	558.851202	1190.577007	-12.514717	774.089036	971.888492	-41.559642	542.674217	1177.051005	-470.452277	788.193388	964.239626	-443.356194	-131.494229	1180.195880	-258.946462	90.649175	1220.960001	-452.880137	79.258611	1213.422550	-54.720960	135.227055	1149.140197	-423.197001	114.075392	1151.199221	-92.279993	-100.961948	1254.867678	-204.136267	-97.980177	1244.850607	-298.915919	45.985585	1071.377394	-34.405400	21.235242	1071.562322	-466.273374	172.586258	998.828877	-32.387553	259.866315	980.803213	-41.072021	324.608374	922.852073	-52.439112	274.831314	1012.888594	-53.678938	418.419283	862.891190	-68.283125	428.472471	845.146839	-195.366757	385.102695	703.298533	-56.163217	388.400017	616.731009	-73.759313	348.847527	538.829801	-76.976462	414.407506	614.649144	-104.057321	308.101122	411.682434	-91.622235	245.285779	395.414634	-140.952078	528.748956	348.310938	-128.693203	455.607754	325.148815	-61.702531	135.101999	971.729693	-482.503810	211.232918	932.601600	-478.607318	236.465195	958.361062	-469.571465	259.265483	856.202900	-475.108423	342.563135	751.606617	-450.804454	354.807361	743.874102	-321.501519	22.144976	470.188692	-416.253635	-50.089572	454.278459	-378.854187	112.644832	325.500505	-446.218443	248.429370	671.097861	-465.806667	206.183542	598.220277	-449.285485	130.444465	553.157042	-441.307914	230.543640	579.216045	-425.740848	208.340966	306.230634	-377.449372	-205.286735	953.384534	-262.562791	1.483801	82.523320	-460.991625	-15.209251	81.093259	-62.381934	
